<svg xmlns="http://www.w3.org/2000/svg" xmlns:xlink="http://www.w3.org/1999/xlink" viewBox="0 0 241 81" preserveAspectRatio="xMidYMid" style="display: block; shape-rendering: auto; background: transparent;" width="241" height="81"><style type="text/css">
  .ld-text text {
    text-anchor: middle;
    dominant-baseline: middle;
    font-size: 115px;
    opacity: 0;
    user-select: none;
    pointer-events: none;
  }
</style>
<g style="transform-origin:120.5px 40.5px;transform:scale(1)" class="ld-text">
<g transform="translate(120.5,40.5)">
  <g transform="scale(1.4375) translate(0,0)"><g class="path" style="opacity: 1; transform-origin: -55.88px -0.7px; transform: matrix3d(0.91, 0, 0, 0, 0, 0.91, 0, 0, 0, 0, 0.91, 0, 0, 0, 0, 1); animation: 0.657895s linear -0.325658s infinite normal forwards running animate-msvbizu81y; transform-box: view-box;"><path d="M33.28 41L6.48 41Q4.96 41 4.32 40.20Q3.68 39.40 3.68 38.12L3.68 38.12Q3.84 36.28 4.72 35.24Q5.60 34.20 7.36 33.08L7.36 33.08Q10.32 31.08 13.60 28.76Q16.88 26.44 19.76 23.60Q22.64 20.76 24.44 17.32Q26.24 13.88 26.24 9.56L26.24 9.56Q26.24 5.72 24.20 3.60Q22.16 1.48 18.48 1.48L18.48 1.48Q15.44 1.48 13.36 3Q11.28 4.52 11.28 7.32L11.28 7.32Q11.28 8.68 11.92 9.60Q12.56 10.52 13.24 11.04Q13.92 11.56 13.92 11.72L13.92 11.72Q13.92 12.12 12.96 13Q12 13.88 10.24 13.88L10.24 13.88Q7.68 13.88 6.24 12.28Q4.80 10.68 4.80 8.36L4.80 8.36Q4.80 4.92 7.08 2.76Q9.36 0.60 12.68-0.40Q16-1.40 19.20-1.40L19.20-1.40Q22.72-1.40 26.12-0.24Q29.52 0.92 31.72 3.56Q33.92 6.20 33.92 10.60L33.92 10.60Q33.92 14.28 32.28 17.28Q30.64 20.28 28 22.76Q25.36 25.24 22.28 27.32Q19.20 29.40 16.16 31.24Q13.12 33.08 10.80 34.92L10.80 34.92L10.80 35.32L32.24 35.32Q33.84 35.32 34.96 35.68Q36.08 36.04 36.08 38.12L36.08 38.12Q36.08 41 33.28 41L33.28 41" style="fill: rgb(45, 105, 255);" transform="translate(-75.760,-20.500)"></path></g><g class="path" style="opacity: 1; transform-origin: -17.92px 0.5px; transform: matrix3d(0.91, 0, 0, 0, 0, 0.91, 0, 0, 0, 0, 0.91, 0, 0, 0, 0, 1); animation: 0.657895s linear -0.217105s infinite normal forwards running animate-msvbizu81y; transform-box: view-box;"><path d="M56.40 42.60L56.40 42.60Q52.88 42.60 49.72 41.72Q46.56 40.84 44.60 38.88Q42.64 36.92 42.64 33.72L42.64 33.72Q42.64 31.40 44.08 29.44Q45.52 27.48 48.08 27.48L48.08 27.48Q49.84 27.48 50.80 28.36Q51.76 29.24 51.76 29.64L51.76 29.64Q51.76 29.80 51.08 30.32Q50.40 30.84 49.76 31.72Q49.12 32.60 49.12 34.04L49.12 34.04Q49.12 36.76 51.08 38.20Q53.04 39.64 56.56 39.64L56.56 39.64Q61.20 39.64 63.28 36.36Q65.36 33.08 65.36 28.36L65.36 28.36Q65.36 25.64 64.48 23.20Q63.60 20.76 61.68 19.20Q59.76 17.64 56.48 17.56L56.48 17.56Q53.60 17.48 51.76 18.52Q49.92 19.56 48.64 20.60Q47.36 21.64 46.08 21.64L46.08 21.64Q45.04 21.64 44.92 20.36Q44.80 19.08 44.88 18.44L44.88 18.44L47.36-0.60L69.36-0.60Q70.48-0.60 71.16 0.08Q71.84 0.76 71.84 2.12L71.84 2.12Q71.84 5.08 68.80 5.08L68.80 5.08L51.04 5.08L49.36 16.20Q52.88 14.04 58 14.04L58 14.04Q60.40 14.04 63 14.84Q65.60 15.64 67.88 17.32Q70.16 19 71.60 21.64Q73.04 24.28 73.04 27.96L73.04 27.96Q73.04 32.76 70.68 36Q68.32 39.24 64.56 40.92Q60.80 42.60 56.40 42.60" style="fill: rgb(255, 234, 0);" transform="translate(-75.760,-20.500)"></path></g><g class="path" style="opacity: 1; transform-origin: 23.08px -0.02px; transform: matrix3d(0.91, 0, 0, 0, 0, 0.91, 0, 0, 0, 0, 0.91, 0, 0, 0, 0, 1); animation: 0.657895s linear -0.108553s infinite normal forwards running animate-msvbizu81y; transform-box: view-box;"><path d="M98.96 42.60L98.96 42.60Q91.44 42.60 86.88 37.92Q82.32 33.24 82.32 25L82.32 25Q82.32 18.44 85.44 12.88Q88.56 7.32 94.08 3.52Q99.60-0.28 106.88-1.56L106.88-1.56Q108.16-1.72 108.92-1.52Q109.68-1.32 109.68-0.20L109.68-0.20Q109.68 0.20 109.40 0.72Q109.12 1.24 108.24 1.48L108.24 1.48Q100.56 3.88 96.36 8.12Q92.16 12.36 90.80 17.88L90.80 17.88Q93.60 16.04 96.16 15.36Q98.72 14.68 101.44 14.68L101.44 14.68Q105.36 14.68 108.48 16.40Q111.60 18.12 113.48 21.08Q115.36 24.04 115.36 27.96L115.36 27.96Q115.36 32.36 113 35.68Q110.64 39 106.92 40.80Q103.20 42.60 98.96 42.60 zM98.96 40.04L98.96 40.04Q102.72 40.04 105.20 36.92Q107.68 33.80 107.68 28.68L107.68 28.68Q107.68 23.96 105.20 21.12Q102.72 18.28 98.72 18.28L98.72 18.28Q96.72 18.28 94.52 19.28Q92.32 20.28 90.48 21.96L90.48 21.96Q90.40 22.44 90.20 23.32Q90 24.20 90 25.08L90 25.08Q90 27.16 90.44 29.72Q90.88 32.28 91.88 34.64Q92.88 37 94.60 38.52Q96.32 40.04 98.96 40.04" style="fill: rgb(255, 61, 0);" transform="translate(-75.760,-20.500)"></path></g><g class="path" style="opacity: 1; transform-origin: 62.92px 0.22px; transform: matrix3d(0.91, 0, 0, 0, 0, 0.91, 0, 0, 0, 0, 0.91, 0, 0, 0, 0, 1); animation: 0.657895s linear 0s infinite normal forwards running animate-msvbizu81y; transform-box: view-box;"><path d="M130.64 42.76L130.64 42.76Q129.36 42.92 128.60 42.72Q127.84 42.52 127.84 41.40L127.84 41.40Q127.84 41 128.12 40.48Q128.40 39.96 129.28 39.72L129.28 39.72Q136.96 37.32 141.20 33.08Q145.44 28.84 146.72 23.32L146.72 23.32Q144 25.08 141.40 25.80Q138.80 26.52 136.08 26.52L136.08 26.52Q132.24 26.52 129.08 24.80Q125.92 23.08 124.04 20.08Q122.16 17.08 122.16 13.24L122.16 13.24Q122.16 8.76 124.52 5.48Q126.88 2.20 130.64 0.40Q134.40-1.40 138.56-1.40L138.56-1.40Q146.08-1.40 150.64 3.24Q155.20 7.88 155.20 16.20L155.20 16.20Q155.20 22.76 152.08 28.32Q148.96 33.88 143.44 37.64Q137.92 41.40 130.64 42.76 zM138.80 22.92L138.80 22.92Q140.88 22.92 143.04 21.92Q145.20 20.92 147.04 19.24L147.04 19.24Q147.20 18.76 147.36 17.88Q147.52 17 147.52 16.12L147.52 16.12Q147.52 14.04 147.08 11.48Q146.64 8.92 145.64 6.56Q144.64 4.20 142.92 2.68Q141.20 1.16 138.56 1.16L138.56 1.16Q134.88 1.16 132.36 4.28Q129.84 7.40 129.84 12.52L129.84 12.52Q129.84 17.24 132.36 20.08Q134.88 22.92 138.80 22.92" style="fill: rgb(238, 62, 255);" transform="translate(-75.760,-20.500)"></path></g></g><text dy="0.35em" fill="#2d69ff" font-family="Alice" font-size="115">2569</text>
</g>
</g><style type="text/css">@keyframes animate-msvbizu81y { 0.00% {transform: translate(0.00px,0.00px) rotate(0.00deg) scale(0.91, 0.91) skew(0deg, 0.00deg) ;opacity: 1.00;}4.00% {transform: translate(0.00px,0.00px) rotate(0.00deg) scale(0.91, 0.91) ;}8.00% {animation-timing-function: cubic-bezier(0.69,0.60,0.35,0.27);transform: translate(0.00px,0.00px) rotate(0.00deg) scale(0.91, 0.91) ;}14.00% {transform: translate(0.00px,0.00px) rotate(0.00deg) scale(0.93, 0.93) ;}18.00% {transform: translate(0.00px,0.00px) rotate(0.00deg) scale(0.94, 0.94) ;}22.00% {animation-timing-function: cubic-bezier(0.67,0.66,0.34,0.33);transform: translate(0.00px,0.00px) rotate(0.00deg) scale(0.96, 0.96) ;}26.00% {transform: translate(0.00px,0.00px) rotate(0.00deg) scale(0.97, 0.97) ;}30.00% {transform: translate(0.00px,0.00px) rotate(0.00deg) scale(0.99, 0.99) ;}34.00% {animation-timing-function: cubic-bezier(0.65,0.71,0.32,0.38);transform: translate(0.00px,0.00px) rotate(0.00deg) scale(1.01, 1.01) ;}40.00% {animation-timing-function: cubic-bezier(0.64,0.74,0.31,0.41);transform: translate(0.00px,0.00px) rotate(0.00deg) scale(1.02, 1.02) ;}46.00% {animation-timing-function: cubic-bezier(0.60,0.91,0.23,0.63);transform: translate(0.00px,0.00px) rotate(0.00deg) scale(1.03, 1.03) ;}50.00% {transform: translate(0.00px,0.00px) rotate(0.00deg) scale(1.03, 1.03) ;}54.00% {transform: translate(0.00px,0.00px) rotate(0.00deg) scale(1.03, 1.03) ;}58.00% {animation-timing-function: cubic-bezier(0.69,0.60,0.35,0.27);transform: translate(0.00px,0.00px) rotate(0.00deg) scale(1.03, 1.03) ;}64.00% {transform: translate(0.00px,0.00px) rotate(0.00deg) scale(1.01, 1.01) ;}68.00% {transform: translate(0.00px,0.00px) rotate(0.00deg) scale(1.00, 1.00) ;}72.00% {animation-timing-function: cubic-bezier(0.67,0.66,0.34,0.33);transform: translate(0.00px,0.00px) rotate(0.00deg) scale(0.98, 0.98) ;}76.00% {animation-timing-function: cubic-bezier(0.66,0.68,0.33,0.35);transform: translate(0.00px,0.00px) rotate(0.00deg) scale(0.97, 0.97) ;}82.00% {animation-timing-function: cubic-bezier(0.65,0.71,0.32,0.38);transform: translate(0.00px,0.00px) rotate(0.00deg) scale(0.94, 0.94) ;}88.00% {animation-timing-function: cubic-bezier(0.65,0.73,0.31,0.40);transform: translate(0.00px,0.00px) rotate(0.00deg) scale(0.92, 0.92) ;}94.00% {animation-timing-function: cubic-bezier(0.63,0.80,0.28,0.48);transform: translate(0.00px,0.00px) rotate(0.00deg) scale(0.91, 0.91) ;}100.00% {animation-timing-function: cubic-bezier(0.63,0.80,0.28,0.48);transform: translate(0.00px,0.00px) rotate(0.00deg) scale(0.91, 0.91) ;} }</style><!-- [ldio] generated by https://loading.io --></svg>